# xmcd CD database file
#
# Track frame offsets:
#	150
#	12092
#	24767
#	36397
#	47942
#	59515
#	69655
#	81117
#	91522
#	101195
#	110870
#	121602
#	133475
#	142502
#	154692
#	164712
#	175950
#	188345
#	196070
#	207527
#	217705
#	227067
#	237547
#	246560
#	259522
#	272235
#	283970
#	298065
#	310715
#
# Disc length: 4289 seconds
#
# Revision: 4
# Processed by: cddbd v1.5PL3 Copyright (c) Steve Scherf et al.
# Submitted via: CDex 1.51
#
DISCID=aa10bf1d
DTITLE=Earl Hooker - Blue Guitar
DYEAR=2001
DGENRE=Blues
TTITLE0=Will My Man Be Home Tonight
TTITLE1=Oh Mama
TTITLE2=Calling All Blues
TTITLE3=Swear To Tell The Truth
TTITLE4=Galloping Horses A Lazy Mule
TTITLE5=Blues In D Natural
TTITLE6=Universal Rock
TTITLE7=Apache War Dance
TTITLE8=Rockin' With Kid
TTITLE9=Rockin' Wild
TTITLE10=This Little Voice
TTITLE11=I Wanna Be Free
TTITLE12=That Ain't Right
TTITLE13=Blue Guitar
TTITLE14=How Long Can This Go On
TTITLE15=Nothing But Good
TTITLE16=These Cotton Pickin' Blues
TTITLE17=Off The Hook
TTITLE18=That Man
TTITLE19=The Bright Sound
TTITLE20=Win The Dance
TTITLE21=You'd Better Be Sure
TTITLE22=Crying Blues
TTITLE23=I Stay Mad
TTITLE24=Lotta Lovin'
TTITLE25=The Leading Brand
TTITLE26=Want You To Rock Me
TTITLE27=Little By Little
TTITLE28=Don't You Ever Forget It
EXTD=YEAR: 2001
EXTT0=
EXTT1=
EXTT2=
EXTT3=
EXTT4=
EXTT5=
EXTT6=
EXTT7=
EXTT8=
EXTT9=
EXTT10=
EXTT11=
EXTT12=
EXTT13=
EXTT14=
EXTT15=
EXTT16=
EXTT17=
EXTT18=
EXTT19=
EXTT20=
EXTT21=
EXTT22=
EXTT23=
EXTT24=
EXTT25=
EXTT26=
EXTT27=
EXTT28=
PLAYORDER=
